<mxfile host="app.diagrams.net" modified="2024-01-29T04:53:30.679Z" agent="Mozilla/5.0 (Windows NT 10.0; Win64; x64) AppleWebKit/537.36 (KHTML, like Gecko) Chrome/120.0.0.0 Safari/537.36" etag="wNA-L0UoMBv-HiCfDiQA" version="23.0.2" type="device">
  <diagram id="Oo3EEzlQDVbyxuKnBBvs" name="Infrastructure">
    <mxGraphModel dx="1434" dy="746" grid="1" gridSize="5" guides="1" tooltips="1" connect="1" arrows="1" fold="1" page="1" pageScale="1" pageWidth="1169" pageHeight="827" math="0" shadow="0">
      <root>
        <mxCell id="0" />
        <object label="Layers" id="VAv7XeJsacFsUJDYs6rD-104">
          <mxCell style="locked=1;" parent="0" />
        </object>
        <mxCell id="VAv7XeJsacFsUJDYs6rD-105" value="" style="rounded=0;whiteSpace=wrap;html=1;opacity=50;fillColor=#d5e8d4;strokeColor=#82b366;movable=1;resizable=1;rotatable=1;deletable=1;editable=1;locked=0;connectable=1;" parent="VAv7XeJsacFsUJDYs6rD-104" vertex="1">
          <mxGeometry x="80" y="160" width="260" height="180" as="geometry" />
        </mxCell>
        <mxCell id="VAv7XeJsacFsUJDYs6rD-106" value="" style="rounded=0;whiteSpace=wrap;html=1;opacity=50;fillColor=#f8cecc;strokeColor=#b85450;movable=1;resizable=1;rotatable=1;deletable=1;editable=1;locked=0;connectable=1;" parent="VAv7XeJsacFsUJDYs6rD-104" vertex="1">
          <mxGeometry x="360" y="160" width="400" height="540" as="geometry" />
        </mxCell>
        <object label="Resources" id="1">
          <mxCell style="locked=1;" parent="0" />
        </object>
        <mxCell id="MTHoReMkw02BGHkiQZ8E-48" value="GetItem" style="edgeStyle=orthogonalEdgeStyle;rounded=0;orthogonalLoop=1;jettySize=auto;html=1;exitX=0.5;exitY=1;exitDx=0;exitDy=0;" parent="1" source="VAv7XeJsacFsUJDYs6rD-17" target="VAv7XeJsacFsUJDYs6rD-9" edge="1">
          <mxGeometry relative="1" as="geometry" />
        </mxCell>
        <mxCell id="VAv7XeJsacFsUJDYs6rD-17" value="" style="group;strokeColor=default;movable=1;resizable=1;rotatable=1;deletable=1;editable=1;locked=0;connectable=1;" parent="1" vertex="1" connectable="0">
          <mxGeometry x="660" y="360" width="80" height="141" as="geometry" />
        </mxCell>
        <mxCell id="VAv7XeJsacFsUJDYs6rD-15" value="AWS Lambda" style="sketch=0;outlineConnect=0;fontColor=#232F3E;gradientColor=none;strokeColor=#ffffff;fillColor=#232F3E;dashed=0;verticalLabelPosition=middle;verticalAlign=bottom;align=center;html=1;whiteSpace=wrap;fontSize=10;fontStyle=1;spacing=3;shape=mxgraph.aws4.productIcon;prIcon=mxgraph.aws4.lambda;movable=1;resizable=1;rotatable=1;deletable=1;editable=1;locked=0;connectable=1;" parent="VAv7XeJsacFsUJDYs6rD-17" vertex="1">
          <mxGeometry width="80" height="108.46153846153845" as="geometry" />
        </mxCell>
        <mxCell id="VAv7XeJsacFsUJDYs6rD-16" value="list-invoices.py" style="rounded=0;whiteSpace=wrap;html=1;fontSize=9;verticalAlign=top;align=left;fillColor=default;strokeColor=none;movable=1;resizable=1;rotatable=1;deletable=1;editable=1;locked=0;connectable=1;" parent="VAv7XeJsacFsUJDYs6rD-17" vertex="1">
          <mxGeometry y="108.46153846153845" width="80" height="32.53846153846153" as="geometry" />
        </mxCell>
        <mxCell id="MTHoReMkw02BGHkiQZ8E-47" value="PutItem" style="edgeStyle=orthogonalEdgeStyle;rounded=0;orthogonalLoop=1;jettySize=auto;html=1;" parent="1" source="VAv7XeJsacFsUJDYs6rD-18" target="VAv7XeJsacFsUJDYs6rD-9" edge="1">
          <mxGeometry x="-0.809" relative="1" as="geometry">
            <Array as="points">
              <mxPoint x="560" y="600" />
            </Array>
            <mxPoint as="offset" />
          </mxGeometry>
        </mxCell>
        <mxCell id="VAv7XeJsacFsUJDYs6rD-18" value="" style="group;strokeColor=default;movable=1;resizable=1;rotatable=1;deletable=1;editable=1;locked=0;connectable=1;" parent="1" vertex="1" connectable="0">
          <mxGeometry x="520" y="360" width="80" height="141" as="geometry" />
        </mxCell>
        <mxCell id="VAv7XeJsacFsUJDYs6rD-5" value="AWS Lambda" style="sketch=0;outlineConnect=0;fontColor=#232F3E;gradientColor=none;strokeColor=#ffffff;fillColor=#232F3E;dashed=0;verticalLabelPosition=middle;verticalAlign=bottom;align=center;html=1;whiteSpace=wrap;fontSize=10;fontStyle=1;spacing=3;shape=mxgraph.aws4.productIcon;prIcon=mxgraph.aws4.lambda;movable=1;resizable=1;rotatable=1;deletable=1;editable=1;locked=0;connectable=1;" parent="VAv7XeJsacFsUJDYs6rD-18" vertex="1">
          <mxGeometry width="80" height="108.46153846153847" as="geometry" />
        </mxCell>
        <mxCell id="VAv7XeJsacFsUJDYs6rD-11" value="generate-invoice.py" style="rounded=0;whiteSpace=wrap;html=1;fontSize=9;verticalAlign=top;align=left;fillColor=default;strokeColor=none;movable=1;resizable=1;rotatable=1;deletable=1;editable=1;locked=0;connectable=1;" parent="VAv7XeJsacFsUJDYs6rD-18" vertex="1">
          <mxGeometry y="108.46153846153847" width="80" height="32.53846153846153" as="geometry" />
        </mxCell>
        <mxCell id="VAv7XeJsacFsUJDYs6rD-19" value="" style="group;strokeColor=default;movable=1;resizable=1;rotatable=1;deletable=1;editable=1;locked=0;connectable=1;" parent="1" vertex="1" connectable="0">
          <mxGeometry x="520" y="180.5" width="80" height="140" as="geometry" />
        </mxCell>
        <mxCell id="VAv7XeJsacFsUJDYs6rD-8" value="Amazon S3" style="sketch=0;outlineConnect=0;fontColor=#232F3E;gradientColor=none;strokeColor=#ffffff;fillColor=#232F3E;dashed=0;verticalLabelPosition=middle;verticalAlign=bottom;align=center;html=1;whiteSpace=wrap;fontSize=10;fontStyle=1;spacing=3;shape=mxgraph.aws4.productIcon;prIcon=mxgraph.aws4.s3;movable=1;resizable=1;rotatable=1;deletable=1;editable=1;locked=0;connectable=1;" parent="VAv7XeJsacFsUJDYs6rD-19" vertex="1">
          <mxGeometry width="80" height="100" as="geometry" />
        </mxCell>
        <mxCell id="VAv7XeJsacFsUJDYs6rD-14" value="dashboard-frontend (s3-website)" style="rounded=0;whiteSpace=wrap;html=1;fontSize=9;verticalAlign=top;align=left;fillColor=default;strokeColor=none;movable=1;resizable=1;rotatable=1;deletable=1;editable=1;locked=0;connectable=1;fontStyle=0" parent="VAv7XeJsacFsUJDYs6rD-19" vertex="1">
          <mxGeometry y="100" width="80" height="40" as="geometry" />
        </mxCell>
        <mxCell id="VAv7XeJsacFsUJDYs6rD-20" value="" style="group;strokeColor=default;movable=1;resizable=1;rotatable=1;deletable=1;editable=1;locked=0;connectable=1;" parent="1" vertex="1" connectable="0">
          <mxGeometry x="660" y="180.00000000000003" width="80" height="140" as="geometry" />
        </mxCell>
        <mxCell id="VAv7XeJsacFsUJDYs6rD-7" value="Amazon API Gateway" style="sketch=0;outlineConnect=0;fontColor=#232F3E;gradientColor=none;strokeColor=#ffffff;fillColor=#232F3E;dashed=0;verticalLabelPosition=middle;verticalAlign=bottom;align=center;html=1;whiteSpace=wrap;fontSize=10;fontStyle=1;spacing=3;shape=mxgraph.aws4.productIcon;prIcon=mxgraph.aws4.api_gateway;movable=1;resizable=1;rotatable=1;deletable=1;editable=1;locked=0;connectable=1;" parent="VAv7XeJsacFsUJDYs6rD-20" vertex="1">
          <mxGeometry width="80" height="110" as="geometry" />
        </mxCell>
        <mxCell id="VAv7XeJsacFsUJDYs6rD-12" value="dasboard (private-rest-api)" style="rounded=0;whiteSpace=wrap;html=1;fontSize=9;verticalAlign=top;align=left;fillColor=default;strokeColor=none;movable=1;resizable=1;rotatable=1;deletable=1;editable=1;locked=0;connectable=1;" parent="VAv7XeJsacFsUJDYs6rD-20" vertex="1">
          <mxGeometry y="110" width="80" height="30" as="geometry" />
        </mxCell>
        <mxCell id="VAv7XeJsacFsUJDYs6rD-21" value="" style="group;strokeColor=default;movable=1;resizable=1;rotatable=1;deletable=1;editable=1;locked=0;connectable=1;" parent="1" vertex="1" connectable="0">
          <mxGeometry x="660" y="540" width="80" height="140" as="geometry" />
        </mxCell>
        <mxCell id="VAv7XeJsacFsUJDYs6rD-9" value="Amazon DynamoDB" style="sketch=0;outlineConnect=0;fontColor=#232F3E;gradientColor=none;strokeColor=#ffffff;fillColor=#232F3E;dashed=0;verticalLabelPosition=middle;verticalAlign=bottom;align=center;html=1;whiteSpace=wrap;fontSize=10;fontStyle=1;spacing=3;shape=mxgraph.aws4.productIcon;prIcon=mxgraph.aws4.dynamodb;movable=1;resizable=1;rotatable=1;deletable=1;editable=1;locked=0;connectable=1;" parent="VAv7XeJsacFsUJDYs6rD-21" vertex="1">
          <mxGeometry width="80" height="110" as="geometry" />
        </mxCell>
        <mxCell id="VAv7XeJsacFsUJDYs6rD-13" value="invoices (table)" style="rounded=0;whiteSpace=wrap;html=1;fontSize=9;verticalAlign=top;align=left;fillColor=default;strokeColor=none;movable=1;resizable=1;rotatable=1;deletable=1;editable=1;locked=0;connectable=1;" parent="VAv7XeJsacFsUJDYs6rD-21" vertex="1">
          <mxGeometry y="110" width="80" height="30" as="geometry" />
        </mxCell>
        <mxCell id="VAv7XeJsacFsUJDYs6rD-81" value="" style="group;strokeColor=default;movable=1;resizable=1;rotatable=1;deletable=1;editable=1;locked=0;connectable=1;" parent="1" vertex="1" connectable="0">
          <mxGeometry x="100" y="180" width="80" height="140" as="geometry" />
        </mxCell>
        <mxCell id="VAv7XeJsacFsUJDYs6rD-82" value="Amazon API Gateway" style="sketch=0;outlineConnect=0;fontColor=#232F3E;gradientColor=none;strokeColor=#ffffff;fillColor=#232F3E;dashed=0;verticalLabelPosition=middle;verticalAlign=bottom;align=center;html=1;whiteSpace=wrap;fontSize=10;fontStyle=1;spacing=3;shape=mxgraph.aws4.productIcon;prIcon=mxgraph.aws4.api_gateway;movable=1;resizable=1;rotatable=1;deletable=1;editable=1;locked=0;connectable=1;" parent="VAv7XeJsacFsUJDYs6rD-81" vertex="1">
          <mxGeometry width="80" height="110" as="geometry" />
        </mxCell>
        <mxCell id="VAv7XeJsacFsUJDYs6rD-83" value="invoices (rest-api)" style="rounded=0;whiteSpace=wrap;html=1;fontSize=9;verticalAlign=top;align=left;fillColor=default;strokeColor=none;movable=1;resizable=1;rotatable=1;deletable=1;editable=1;locked=0;connectable=1;fontStyle=0" parent="VAv7XeJsacFsUJDYs6rD-81" vertex="1">
          <mxGeometry y="110" width="80" height="30" as="geometry" />
        </mxCell>
        <mxCell id="MTHoReMkw02BGHkiQZ8E-59" value="" style="edgeStyle=orthogonalEdgeStyle;rounded=0;orthogonalLoop=1;jettySize=auto;html=1;entryX=0.684;entryY=0.997;entryDx=0;entryDy=0;entryPerimeter=0;" parent="1" source="VAv7XeJsacFsUJDYs6rD-84" target="VAv7XeJsacFsUJDYs6rD-112" edge="1">
          <mxGeometry relative="1" as="geometry">
            <Array as="points">
              <mxPoint x="440" y="380" />
              <mxPoint x="295" y="380" />
              <mxPoint x="295" y="320" />
            </Array>
          </mxGeometry>
        </mxCell>
        <mxCell id="MTHoReMkw02BGHkiQZ8E-60" value="&lt;pre style=&quot;margin-top: 0px; margin-bottom: 0px; padding: var(--su12); border: 0px; font-variant-numeric: inherit; font-variant-east-asian: inherit; font-variant-alternates: inherit; font-variant-position: inherit; font-stretch: inherit; line-height: var(--lh-md); font-family: var(--ff-mono); font-optical-sizing: inherit; font-kerning: inherit; font-feature-settings: inherit; font-variation-settings: inherit; font-size: var(--fs-body1); vertical-align: baseline; box-sizing: inherit; width: auto; max-height: 600px; overflow: auto; background-color: var(--highlight-bg); border-radius: var(--br-md); overflow-wrap: normal; --theme-base-primary-color-h: 27; --theme-base-primary-color-s: 89%; --theme-base-primary-color-l: 48%; --theme-primary-custom-100: hsl(var(--theme-base-primary-color-h), var(--theme-base-primary-color-s), calc(var(--theme-base-primary-color-l) + ((100% - var(--theme-base-primary-color-l)) * .9))); --theme-primary-custom-200: hsl(var(--theme-base-primary-color-h), var(--theme-base-primary-color-s), calc(var(--theme-base-primary-color-l) + ((100% - var(--theme-base-primary-color-l)) * .75))); --theme-primary-custom-300: hsl(var(--theme-base-primary-color-h), var(--theme-base-primary-color-s), calc(var(--theme-base-primary-color-l) + ((100% - var(--theme-base-primary-color-l)) * .5))); --theme-primary-custom-400: hsl(var(--theme-base-primary-color-h), var(--theme-base-primary-color-s), var(--theme-base-primary-color-l)); --theme-primary-custom-500: hsl(var(--theme-base-primary-color-h), var(--theme-base-primary-color-s), calc(var(--theme-base-primary-color-l) + (var(--theme-base-primary-color-l) * -.3))); --theme-primary-custom-600: hsl(var(--theme-base-primary-color-h), var(--theme-base-primary-color-s), calc(var(--theme-base-primary-color-l) + (var(--theme-base-primary-color-l) * -.6))); --theme-primary-custom: var(--theme-primary-custom-400); --theme-button-color: initial; --theme-button-hover-color: initial; --theme-button-hover-background-color: initial; --theme-button-active-background-color: initial; --theme-button-selected-color: initial; --theme-button-selected-background-color: initial; --theme-button-outlined-border-color: initial; --theme-button-outlined-selected-border-color: initial; --theme-button-primary-color: initial; --theme-button-primary-active-color: initial; --theme-button-primary-hover-color: initial; --theme-button-primary-selected-color: initial; --theme-button-primary-background-color: initial; --theme-button-primary-active-background-color: initial; --theme-button-primary-hover-background-color: initial; --theme-button-primary-selected-background-color: initial; --theme-background-color: var(--white); --theme-background-position: top left; --theme-background-repeat: repeat; --theme-background-size: auto; --theme-background-attachment: auto; --theme-content-background-color: var(--white); --theme-content-border-color: var(--black-225); --theme-header-background-color: var(--theme-primary); --theme-header-background-position: center left; --theme-header-background-repeat: repeat; --theme-header-background-size: auto; --theme-header-background-border-bottom: 0; --theme-header-link-color: var(--theme-primary); --theme-header-sponsored-color: hsla(0,0%,100%,0.4); --theme-header-foreground-color: transparent; --theme-header-foreground-position: bottom right; --theme-header-foreground-repeat: no-repeat; --theme-header-foreground-size: auto; --theme-footer-background-color: hsl(210,8%,5%); --theme-footer-background-position: top left; --theme-footer-background-repeat: no-repeat; --theme-footer-background-size: auto; --theme-footer-background-border-top: 0; --theme-footer-title-color: var(--black-250); --theme-footer-text-color: var(--black-300); --theme-footer-link-color: var(--black-300); --theme-footer-link-color-hover: var(--black-200); --theme-footer-divider-color: var(--black-500); --theme-footer-padding-top: 0; --theme-footer-padding-bottom: 0; --theme-link-color: initial; --theme-link-color-hover: initial; --theme-link-color-visited: initial; --theme-tag-color: initial; --theme-tag-background-color: initial; --theme-tag-border-color: initial; --theme-tag-hover-color: initial; --theme-tag-hover-background-color: initial; --theme-tag-hover-border-color: initial; --theme-tag-required-color: var(--white); --theme-tag-required-background-color: var(--theme-secondary-500); --theme-tag-required-border-color: transparent; --theme-tag-required-hover-color: var(--white); --theme-tag-required-hover-background-color: var(--theme-secondary-400); --theme-tag-required-hover-border-color: transparent; --theme-body-font-family: var(--ff-sans); --theme-body-font-color: var(--black-600); --theme-post-title-font-family: var(--ff-sans); --theme-post-title-color: var(--theme-link-color); --theme-post-title-color-hover: var(--theme-link-color-hover); --theme-post-title-color-visited: var(--theme-link-color-visited); --theme-post-body-font-family: var(--ff-sans); --theme-post-owner-background-color: var(--theme-secondary-100); --theme-post-owner-new-background-color: var(--theme-secondary-200); --theme-topbar-bottom-border: 1px solid var(--black-225); color: rgb(12, 13, 14); text-align: left;&quot;&gt;ListObjects - GetObject&lt;/pre&gt;" style="edgeLabel;html=1;align=center;verticalAlign=middle;resizable=0;points=[];" parent="MTHoReMkw02BGHkiQZ8E-59" vertex="1" connectable="0">
          <mxGeometry x="-0.1665" y="1" relative="1" as="geometry">
            <mxPoint x="-24" as="offset" />
          </mxGeometry>
        </mxCell>
        <mxCell id="VAv7XeJsacFsUJDYs6rD-84" value="" style="group;strokeColor=default;movable=1;resizable=1;rotatable=1;deletable=1;editable=1;locked=0;connectable=1;" parent="1" vertex="1" connectable="0">
          <mxGeometry x="380" y="179.5" width="80" height="141" as="geometry" />
        </mxCell>
        <mxCell id="VAv7XeJsacFsUJDYs6rD-85" value="AWS Lambda" style="sketch=0;outlineConnect=0;fontColor=#232F3E;gradientColor=none;strokeColor=#ffffff;fillColor=#232F3E;dashed=0;verticalLabelPosition=middle;verticalAlign=bottom;align=center;html=1;whiteSpace=wrap;fontSize=10;fontStyle=1;spacing=3;shape=mxgraph.aws4.productIcon;prIcon=mxgraph.aws4.lambda;movable=1;resizable=1;rotatable=1;deletable=1;editable=1;locked=0;connectable=1;" parent="VAv7XeJsacFsUJDYs6rD-84" vertex="1">
          <mxGeometry width="80" height="108.46153846153847" as="geometry" />
        </mxCell>
        <mxCell id="VAv7XeJsacFsUJDYs6rD-86" value="list-invoices-as-pdf.py" style="rounded=0;whiteSpace=wrap;html=1;fontSize=9;verticalAlign=top;align=left;fillColor=default;strokeColor=none;movable=1;resizable=1;rotatable=1;deletable=1;editable=1;locked=0;connectable=1;" parent="VAv7XeJsacFsUJDYs6rD-84" vertex="1">
          <mxGeometry y="108.46153846153847" width="80" height="32.53846153846153" as="geometry" />
        </mxCell>
        <mxCell id="VAv7XeJsacFsUJDYs6rD-110" value="" style="group;strokeColor=default;movable=1;resizable=1;rotatable=1;deletable=1;editable=1;locked=0;connectable=1;" parent="1" vertex="1" connectable="0">
          <mxGeometry x="240" y="180" width="80" height="140" as="geometry" />
        </mxCell>
        <mxCell id="VAv7XeJsacFsUJDYs6rD-111" value="Amazon S3" style="sketch=0;outlineConnect=0;fontColor=#232F3E;gradientColor=none;strokeColor=#ffffff;fillColor=#232F3E;dashed=0;verticalLabelPosition=middle;verticalAlign=bottom;align=center;html=1;whiteSpace=wrap;fontSize=10;fontStyle=1;spacing=3;shape=mxgraph.aws4.productIcon;prIcon=mxgraph.aws4.s3;movable=1;resizable=1;rotatable=1;deletable=1;editable=1;locked=0;connectable=1;" parent="VAv7XeJsacFsUJDYs6rD-110" vertex="1">
          <mxGeometry width="80" height="100" as="geometry" />
        </mxCell>
        <mxCell id="VAv7XeJsacFsUJDYs6rD-112" value="invoices (static-website-hosting)" style="rounded=0;whiteSpace=wrap;html=1;fontSize=9;verticalAlign=top;align=left;fillColor=default;strokeColor=none;movable=1;resizable=1;rotatable=1;deletable=1;editable=1;locked=0;connectable=1;fontStyle=0" parent="VAv7XeJsacFsUJDYs6rD-110" vertex="1">
          <mxGeometry y="100" width="80" height="40" as="geometry" />
        </mxCell>
        <mxCell id="MTHoReMkw02BGHkiQZ8E-28" value="GET" style="edgeStyle=orthogonalEdgeStyle;rounded=0;orthogonalLoop=1;jettySize=auto;html=1;" parent="1" source="MTHoReMkw02BGHkiQZ8E-25" target="VAv7XeJsacFsUJDYs6rD-111" edge="1">
          <mxGeometry x="0.1111" relative="1" as="geometry">
            <mxPoint as="offset" />
          </mxGeometry>
        </mxCell>
        <mxCell id="MTHoReMkw02BGHkiQZ8E-71" style="edgeStyle=orthogonalEdgeStyle;rounded=0;orthogonalLoop=1;jettySize=auto;html=1;fillColor=#d5e8d4;strokeColor=#82b366;exitX=0.968;exitY=0.467;exitDx=0;exitDy=0;exitPerimeter=0;" parent="1" source="MTHoReMkw02BGHkiQZ8E-25" target="MTHoReMkw02BGHkiQZ8E-63" edge="1">
          <mxGeometry relative="1" as="geometry">
            <Array as="points" />
          </mxGeometry>
        </mxCell>
        <mxCell id="MTHoReMkw02BGHkiQZ8E-25" value="Internet" style="image;aspect=fixed;perimeter=ellipsePerimeter;html=1;align=center;shadow=0;dashed=0;spacingTop=3;image=img/lib/active_directory/internet_globe.svg;" parent="1" vertex="1">
          <mxGeometry x="263.75" y="75" width="32.5" height="32.5" as="geometry" />
        </mxCell>
        <mxCell id="MTHoReMkw02BGHkiQZ8E-29" value="GET" style="edgeStyle=orthogonalEdgeStyle;rounded=0;orthogonalLoop=1;jettySize=auto;html=1;" parent="1" source="VAv7XeJsacFsUJDYs6rD-111" target="VAv7XeJsacFsUJDYs6rD-82" edge="1">
          <mxGeometry relative="1" as="geometry">
            <Array as="points">
              <mxPoint x="260" y="235" />
              <mxPoint x="260" y="235" />
            </Array>
          </mxGeometry>
        </mxCell>
        <mxCell id="MTHoReMkw02BGHkiQZ8E-42" value="POST" style="edgeStyle=orthogonalEdgeStyle;rounded=0;orthogonalLoop=1;jettySize=auto;html=1;" parent="1" source="VAv7XeJsacFsUJDYs6rD-12" target="VAv7XeJsacFsUJDYs6rD-5" edge="1">
          <mxGeometry x="0.7778" relative="1" as="geometry">
            <Array as="points">
              <mxPoint x="680" y="325" />
              <mxPoint x="560" y="325" />
            </Array>
            <mxPoint as="offset" />
          </mxGeometry>
        </mxCell>
        <mxCell id="MTHoReMkw02BGHkiQZ8E-43" value="GET" style="edgeStyle=orthogonalEdgeStyle;rounded=0;orthogonalLoop=1;jettySize=auto;html=1;exitX=0.5;exitY=1;exitDx=0;exitDy=0;" parent="1" source="VAv7XeJsacFsUJDYs6rD-12" target="VAv7XeJsacFsUJDYs6rD-15" edge="1">
          <mxGeometry relative="1" as="geometry">
            <mxPoint as="offset" />
          </mxGeometry>
        </mxCell>
        <mxCell id="MTHoReMkw02BGHkiQZ8E-51" value="PutObject" style="edgeStyle=orthogonalEdgeStyle;rounded=0;orthogonalLoop=1;jettySize=auto;html=1;entryX=0.5;entryY=1;entryDx=0;entryDy=0;" parent="1" source="VAv7XeJsacFsUJDYs6rD-5" target="VAv7XeJsacFsUJDYs6rD-110" edge="1">
          <mxGeometry relative="1" as="geometry" />
        </mxCell>
        <mxCell id="MTHoReMkw02BGHkiQZ8E-1" value="VPC" style="points=[[0,0],[0.25,0],[0.5,0],[0.75,0],[1,0],[1,0.25],[1,0.5],[1,0.75],[1,1],[0.75,1],[0.5,1],[0.25,1],[0,1],[0,0.75],[0,0.5],[0,0.25]];outlineConnect=0;gradientColor=none;html=1;whiteSpace=wrap;fontSize=12;fontStyle=0;container=1;pointerEvents=0;collapsible=0;recursiveResize=0;shape=mxgraph.aws4.group;grIcon=mxgraph.aws4.group_vpc2;strokeColor=#8C4FFF;fillColor=none;verticalAlign=top;align=left;spacingLeft=30;fontColor=#AAB7B8;dashed=0;" parent="1" vertex="1">
          <mxGeometry x="557.5" y="40" width="120" height="100" as="geometry" />
        </mxCell>
        <mxCell id="MTHoReMkw02BGHkiQZ8E-2" value="VPC Endpoint" style="sketch=0;outlineConnect=0;fontColor=#232F3E;gradientColor=none;fillColor=#8C4FFF;strokeColor=none;dashed=0;verticalLabelPosition=bottom;verticalAlign=top;align=center;html=1;fontSize=9;fontStyle=0;aspect=fixed;pointerEvents=1;shape=mxgraph.aws4.endpoints;labelBackgroundColor=default;" parent="MTHoReMkw02BGHkiQZ8E-1" vertex="1">
          <mxGeometry x="65" y="32.5" width="35" height="35" as="geometry" />
        </mxCell>
        <mxCell id="MTHoReMkw02BGHkiQZ8E-61" value="VPN Gateway" style="sketch=0;outlineConnect=0;fontColor=#232F3E;gradientColor=none;strokeColor=#232F3E;fillColor=#ffffff;dashed=0;verticalLabelPosition=bottom;verticalAlign=top;align=center;html=1;fontSize=9;fontStyle=0;aspect=fixed;shape=mxgraph.aws4.resourceIcon;resIcon=mxgraph.aws4.vpn_gateway;labelBackgroundColor=default;" parent="MTHoReMkw02BGHkiQZ8E-1" vertex="1">
          <mxGeometry x="-17.5" y="32.5" width="35" height="35" as="geometry" />
        </mxCell>
        <mxCell id="MTHoReMkw02BGHkiQZ8E-65" style="edgeStyle=orthogonalEdgeStyle;rounded=0;orthogonalLoop=1;jettySize=auto;html=1;fillColor=#d5e8d4;strokeColor=#82b366;startArrow=classic;startFill=1;" parent="1" source="MTHoReMkw02BGHkiQZ8E-63" target="MTHoReMkw02BGHkiQZ8E-61" edge="1">
          <mxGeometry relative="1" as="geometry" />
        </mxCell>
        <mxCell id="MTHoReMkw02BGHkiQZ8E-75" value="GET/POST" style="edgeStyle=orthogonalEdgeStyle;rounded=0;orthogonalLoop=1;jettySize=auto;html=1;fillColor=#d5e8d4;strokeColor=#82b366;" parent="1" source="MTHoReMkw02BGHkiQZ8E-63" target="VAv7XeJsacFsUJDYs6rD-8" edge="1">
          <mxGeometry x="0.6314" relative="1" as="geometry">
            <Array as="points">
              <mxPoint x="540" y="100" />
            </Array>
            <mxPoint as="offset" />
          </mxGeometry>
        </mxCell>
        <mxCell id="MTHoReMkw02BGHkiQZ8E-63" value="VPN&#xa;Connection" style="sketch=0;outlineConnect=0;fontColor=#232F3E;gradientColor=none;strokeColor=#232F3E;fillColor=#ffffff;dashed=0;verticalLabelPosition=bottom;verticalAlign=top;align=center;html=1;fontSize=9;fontStyle=0;aspect=fixed;shape=mxgraph.aws4.resourceIcon;resIcon=mxgraph.aws4.vpn_connection;" parent="1" vertex="1">
          <mxGeometry x="420" y="72.5" width="35" height="35" as="geometry" />
        </mxCell>
        <mxCell id="MTHoReMkw02BGHkiQZ8E-78" style="edgeStyle=orthogonalEdgeStyle;rounded=0;orthogonalLoop=1;jettySize=auto;html=1;fillColor=#d5e8d4;strokeColor=#82b366;" parent="1" source="VAv7XeJsacFsUJDYs6rD-8" target="VAv7XeJsacFsUJDYs6rD-7" edge="1">
          <mxGeometry relative="1" as="geometry">
            <Array as="points">
              <mxPoint x="615" y="235" />
              <mxPoint x="615" y="235" />
            </Array>
          </mxGeometry>
        </mxCell>
        <mxCell id="MTHoReMkw02BGHkiQZ8E-79" value="execute-api Policy" style="edgeStyle=orthogonalEdgeStyle;rounded=0;orthogonalLoop=1;jettySize=auto;html=1;" parent="1" source="VAv7XeJsacFsUJDYs6rD-7" target="MTHoReMkw02BGHkiQZ8E-2" edge="1">
          <mxGeometry x="-0.5472" relative="1" as="geometry">
            <Array as="points">
              <mxPoint x="700" y="90" />
            </Array>
            <mxPoint as="offset" />
          </mxGeometry>
        </mxCell>
        <object label="Notes" id="VAv7XeJsacFsUJDYs6rD-117">
          <mxCell style="locked=1;" parent="0" visible="0" />
        </object>
        <mxCell id="VAv7XeJsacFsUJDYs6rD-118" value="&lt;h1 style=&quot;font-size: 12px;&quot;&gt;Notes&lt;/h1&gt;&lt;div style=&quot;&quot;&gt;&lt;div style=&quot;font-size: 12px;&quot;&gt;Application Features:&lt;/div&gt;&lt;div style=&quot;&quot;&gt;&lt;ul style=&quot;&quot;&gt;&lt;li style=&quot;font-size: 12px;&quot;&gt;&lt;span style=&quot;background-color: initial; font-size: 12px;&quot;&gt;Generate invoices&lt;/span&gt;&lt;/li&gt;&lt;ul&gt;&lt;li style=&quot;font-size: 12px;&quot;&gt;List invoices&lt;/li&gt;&lt;li style=&quot;font-size: 12px;&quot;&gt;Store invoices as PDFs&lt;/li&gt;&lt;/ul&gt;&lt;li style=&quot;&quot;&gt;PDFs must be separated with raw data&lt;br&gt;&lt;/li&gt;&lt;/ul&gt;&lt;/div&gt;&lt;div style=&quot;font-size: 12px;&quot;&gt;Planning Infrastructure:&lt;/div&gt;&lt;div style=&quot;font-size: 12px;&quot;&gt;&lt;ul&gt;&lt;li style=&quot;font-size: 12px;&quot;&gt;Database&lt;/li&gt;&lt;ul style=&quot;font-size: 12px;&quot;&gt;&lt;li style=&quot;font-size: 12px;&quot;&gt;DynamoDB&lt;/li&gt;&lt;/ul&gt;&lt;li style=&quot;font-size: 12px;&quot;&gt;&lt;span style=&quot;background-color: initial; font-size: 12px;&quot;&gt;Dashboard&lt;/span&gt;&lt;/li&gt;&lt;ul style=&quot;font-size: 12px;&quot;&gt;&lt;li style=&quot;font-size: 12px;&quot;&gt;&lt;span style=&quot;background-color: initial; font-size: 12px;&quot;&gt;Backend&lt;/span&gt;&lt;/li&gt;&lt;ul style=&quot;font-size: 12px;&quot;&gt;&lt;li style=&quot;font-size: 12px;&quot;&gt;Lambda&lt;/li&gt;&lt;li style=&quot;font-size: 12px;&quot;&gt;API Gateway&lt;/li&gt;&lt;/ul&gt;&lt;li style=&quot;font-size: 12px;&quot;&gt;Frontend&lt;/li&gt;&lt;ul style=&quot;font-size: 12px;&quot;&gt;&lt;li style=&quot;font-size: 12px;&quot;&gt;S3 Static Web Hosting&lt;/li&gt;&lt;/ul&gt;&lt;/ul&gt;&lt;li style=&quot;font-size: 12px;&quot;&gt;Invoices&lt;/li&gt;&lt;ul style=&quot;border-color: var(--border-color);&quot;&gt;&lt;li style=&quot;border-color: var(--border-color);&quot;&gt;Backend&lt;/li&gt;&lt;ul&gt;&lt;li style=&quot;border-color: var(--border-color);&quot;&gt;Lambda&lt;/li&gt;&lt;li style=&quot;border-color: var(--border-color);&quot;&gt;API Gateway&lt;/li&gt;&lt;/ul&gt;&lt;li style=&quot;border-color: var(--border-color);&quot;&gt;Frontend and Storage&lt;/li&gt;&lt;ul&gt;&lt;li style=&quot;border-color: var(--border-color);&quot;&gt;S3 Static Web Hosting&lt;/li&gt;&lt;/ul&gt;&lt;/ul&gt;&lt;/ul&gt;&lt;/div&gt;&lt;/div&gt;" style="text;html=1;strokeColor=#666666;fillColor=#f5f5f5;spacing=5;spacingTop=-10;whiteSpace=wrap;overflow=hidden;rounded=0;fontSize=12;movable=1;resizable=1;rotatable=1;deletable=1;editable=1;locked=0;connectable=1;fontColor=#333333;verticalAlign=top;" parent="VAv7XeJsacFsUJDYs6rD-117" vertex="1">
          <mxGeometry x="900" y="20" width="260" height="365" as="geometry" />
        </mxCell>
      </root>
    </mxGraphModel>
  </diagram>
</mxfile>
